<svg xmlns="http://www.w3.org/2000/svg" xmlns:xlink="http://www.w3.org/1999/xlink" width="233" zoomAndPan="magnify" viewBox="0 0 174.75 34.499999" height="46" preserveAspectRatio="xMidYMid meet" version="1.0"><defs><g/></defs><g fill="#8c52ff" fill-opacity="1"><g transform="translate(87.41244, 23.594611)"><g><path d="M 6.25 0.3125 C 7.808594 0.3125 9.117188 -0.207031 10.09375 -1.101562 L 10.488281 0 L 13.351562 0 L 13.351562 -15.367188 L 9.367188 -15.367188 L 9.367188 -10.425781 C 8.492188 -10.984375 7.433594 -11.296875 6.25 -11.296875 C 2.949219 -11.296875 0.644531 -8.910156 0.644531 -5.503906 C 0.644531 -2.054688 2.949219 0.3125 6.25 0.3125 Z M 4.546875 -5.503906 C 4.546875 -6.957031 5.566406 -7.996094 7.039062 -7.996094 C 8.492188 -7.996094 9.511719 -6.957031 9.511719 -5.503906 C 9.511719 -4.027344 8.492188 -2.992188 7.039062 -2.992188 C 5.566406 -2.992188 4.546875 -4.027344 4.546875 -5.503906 Z M 4.546875 -5.503906 "/></g></g></g><g fill="#8c52ff" fill-opacity="1"><g transform="translate(102.155084, 23.594611)"><g><path d="M 6.851562 0.3125 C 9.699219 0.3125 11.878906 -1.101562 12.855469 -3.550781 L 8.992188 -3.550781 C 8.554688 -3.03125 7.789062 -2.699219 6.9375 -2.699219 C 5.816406 -2.699219 4.878906 -3.300781 4.589844 -4.507812 L 13.0625 -4.507812 C 13.269531 -8.597656 10.796875 -11.296875 6.875 -11.296875 C 3.199219 -11.296875 0.644531 -8.929688 0.644531 -5.503906 C 0.644531 -2.054688 3.175781 0.3125 6.851562 0.3125 Z M 4.609375 -6.667969 C 4.941406 -7.726562 5.816406 -8.308594 6.914062 -8.308594 C 8.121094 -8.308594 8.929688 -7.683594 9.261719 -6.667969 Z M 4.609375 -6.667969 "/></g></g></g><g fill="#8c52ff" fill-opacity="1"><g transform="translate(115.838748, 23.594611)"><g><path d="M 4.527344 0 L 8.578125 0 L 13.019531 -10.984375 L 8.679688 -10.984375 L 7.496094 -7.351562 L 6.5625 -4.527344 L 5.628906 -7.351562 L 4.464844 -10.984375 L 0.105469 -10.984375 Z M 4.527344 0 "/></g></g></g><g fill="#27292d" fill-opacity="1"><g transform="translate(128.952639, 23.594611)"><g><path d="M 11.109375 -1.472656 L 11.109375 -5.566406 L 7.144531 -6.789062 L 8.867188 -7.308594 L 11.109375 -8.015625 L 11.109375 -12.085938 L 1.515625 -8.285156 L 1.515625 -5.296875 Z M 11.109375 -1.472656 "/></g></g></g><g fill="#27292d" fill-opacity="1"><g transform="translate(141.577335, 23.594611)"><g><path d="M 1.472656 1.328125 L 5.316406 1.328125 L 10.921875 -15.867188 L 7.0625 -15.867188 Z M 1.472656 1.328125 "/></g></g></g><g fill="#27292d" fill-opacity="1"><g transform="translate(153.973623, 23.594611)"><g><path d="M 1.515625 -1.472656 L 11.109375 -5.296875 L 11.109375 -8.285156 L 1.515625 -12.085938 L 1.515625 -8.015625 L 3.757812 -7.308594 L 5.480469 -6.789062 L 1.515625 -5.566406 Z M 1.515625 -1.472656 "/></g></g></g><g fill="#8c52ff" fill-opacity="1"><g transform="translate(6.307405, 23.602278)"><g><path d="M 1.542969 0 L 7.726562 0 C 12.433594 0 15.558594 -2.894531 15.558594 -7.289062 C 15.558594 -11.664062 12.433594 -14.578125 7.726562 -14.578125 L 1.542969 -14.578125 Z M 5.746094 -3.769531 L 5.746094 -10.808594 L 7.601562 -10.808594 C 9.828125 -10.808594 11.265625 -9.433594 11.265625 -7.289062 C 11.265625 -5.144531 9.828125 -3.769531 7.601562 -3.769531 Z M 5.746094 -3.769531 "/></g></g></g><g fill="#8c52ff" fill-opacity="1"><g transform="translate(22.56954, 23.602278)"><g><path d="M 6.871094 0.3125 C 9.726562 0.3125 11.914062 -1.105469 12.890625 -3.5625 L 9.019531 -3.5625 C 8.582031 -3.039062 7.808594 -2.707031 6.957031 -2.707031 C 5.832031 -2.707031 4.894531 -3.3125 4.601562 -4.519531 L 13.097656 -4.519531 C 13.308594 -8.621094 10.828125 -11.328125 6.894531 -11.328125 C 3.207031 -11.328125 0.644531 -8.957031 0.644531 -5.519531 C 0.644531 -2.0625 3.1875 0.3125 6.871094 0.3125 Z M 4.625 -6.683594 C 4.957031 -7.746094 5.832031 -8.332031 6.933594 -8.332031 C 8.144531 -8.332031 8.957031 -7.707031 9.289062 -6.683594 Z M 4.625 -6.683594 "/></g></g></g><g fill="#8c52ff" fill-opacity="1"><g transform="translate(36.291365, 23.602278)"><g><path d="M 5.746094 0.3125 C 8.871094 0.3125 10.726562 -1 10.726562 -3.207031 C 10.726562 -5.082031 9.433594 -6.226562 6.746094 -6.746094 C 5.082031 -7.058594 4.601562 -7.332031 4.601562 -7.871094 C 4.601562 -8.351562 5 -8.621094 5.582031 -8.621094 C 6.308594 -8.621094 6.726562 -8.246094 6.769531 -7.582031 L 10.558594 -7.582031 C 10.414062 -10.015625 8.707031 -11.328125 5.621094 -11.328125 C 2.476562 -11.328125 0.769531 -10.101562 0.769531 -7.871094 C 0.769531 -5.996094 1.976562 -4.914062 4.726562 -4.394531 C 6.183594 -4.101562 6.789062 -3.75 6.789062 -3.226562 C 6.789062 -2.75 6.414062 -2.457031 5.789062 -2.457031 C 5.0625 -2.457031 4.582031 -2.914062 4.582031 -3.582031 L 0.667969 -3.582031 C 0.667969 -1.230469 2.664062 0.3125 5.746094 0.3125 Z M 5.746094 0.3125 "/></g></g></g><g fill="#8c52ff" fill-opacity="1"><g transform="translate(47.722753, 23.602278)"><g><path d="M 1.394531 0 L 5.394531 0 L 5.394531 -15.410156 L 1.394531 -15.410156 Z M 1.394531 0 "/></g></g></g><g fill="#8c52ff" fill-opacity="1"><g transform="translate(54.510784, 23.602278)"><g><path d="M 5.0625 0.25 C 6.644531 0.25 7.976562 -0.269531 8.914062 -1.207031 L 9.351562 0 L 12.226562 0 L 12.226562 -6.414062 C 12.226562 -9.558594 10.246094 -11.328125 6.707031 -11.328125 C 3.625 -11.328125 1.769531 -9.933594 1.4375 -7.394531 L 5.1875 -7.394531 C 5.289062 -8.039062 5.914062 -8.476562 6.726562 -8.476562 C 7.621094 -8.476562 8.332031 -7.957031 8.332031 -7.226562 L 8.332031 -6.601562 L 4.625 -6.601562 C 2.351562 -6.601562 0.894531 -5.25 0.894531 -3.226562 C 0.894531 -1.082031 2.519531 0.25 5.0625 0.25 Z M 4.8125 -3.414062 C 4.8125 -4.039062 5.351562 -4.414062 6.207031 -4.414062 L 8.371094 -4.414062 C 8.371094 -3.207031 7.457031 -2.394531 6.246094 -2.394531 C 5.394531 -2.394531 4.8125 -2.789062 4.8125 -3.414062 Z M 4.8125 -3.414062 "/></g></g></g><g fill="#8c52ff" fill-opacity="1"><g transform="translate(67.920277, 23.602278)"><g><path d="M 1.394531 0 L 5.394531 0 L 5.394531 -5.933594 C 5.394531 -7.269531 6.082031 -8.019531 7.183594 -8.019531 C 8.246094 -8.019531 8.871094 -7.332031 8.871094 -6.039062 L 8.871094 0 L 12.871094 0 L 12.871094 -6.457031 C 12.871094 -9.433594 11.101562 -11.328125 8.269531 -11.328125 C 6.789062 -11.328125 5.496094 -10.808594 4.6875 -9.890625 L 4.269531 -11.015625 L 1.394531 -11.015625 Z M 1.394531 0 "/></g></g></g><g fill="#27292d" fill-opacity="1"><g transform="translate(81.972802, 23.602278)"><g><path d="M 2.832031 0.269531 C 4.125 0.269531 5.039062 -0.644531 5.039062 -1.894531 C 5.039062 -3.144531 4.125 -4.0625 2.832031 -4.0625 C 1.519531 -4.0625 0.605469 -3.144531 0.605469 -1.894531 C 0.605469 -0.644531 1.519531 0.269531 2.832031 0.269531 Z M 2.832031 0.269531 "/></g></g></g><g fill="#ffffff" fill-opacity="1"><g transform="translate(87.606352, 23.602278)"><g/></g></g></svg>